<?xml version="1.0" encoding="utf-8"?>
<svg version="1.1" id="OBSVG" xmlns="http://www.w3.org/2000/svg" xmlns:xlink="http://www.w3.org/1999/xlink" x="0px" y="0px"
	 viewBox="0 0 172.4 183.9" style="enable-background:new 0 0 172.4 183.9;" xml:space="preserve">
<style type="text/css">
	.st0{fill:#000000;}
</style>
<path class="st0" d="M172.6,1.3v63.1H103V39.1h24.8c-10.8-9.2-25.8-14.9-42.4-14.9c-32.8,0-59.4,22.2-59.4,49.6H0
	C2.8,32.6,39.7,0,84.8,0c24.7,0,47,9.8,62.5,25.4V1.3H172.6z"/>
<path class="st0" d="M0,182.7v-63.1h69.5v25.3H44.7c10.8,9.2,25.8,14.9,42.4,14.9c32.8,0,59.4-22.2,59.4-49.6h26.1
	c-2.8,41.2-39.7,73.9-84.8,73.9c-24.7,0-47-9.8-62.5-25.4v24.2H0z"/>
</svg>
